PathFileType	4	(X/Y/Z)	C:\Users\°ÂÌØÂü\Desktop\20210112\bx_y_0_502-Unnamed.trc
DataRate	CameraRate	NumFrames	NumMarkers	Units	OrigDataRate	OrigDataStartFrame	OrigNumFrames
50.00	50.00	       6	0	mm	50.00	1	       560
Frame#	Time	
		

1	0.000	-691.37567	110.98161	1847.85840	-717.42169	289.32037	1531.19592				-577.02881	-2.91440	802.81720	-570.49951	210.78555	814.97253	-715.12366	245.32097	639.15326	-720.67792	242.68523	576.02167	-666.68127	203.34975	531.54480	-762.53552	251.29330	504.28583	-662.90918	-66.40358	163.76306	-517.30035	-72.14968	143.13820	-716.54803	78.59269	216.29951	-603.64355	20.71532	165.40746	-675.00470	56.70748	156.58389	-710.83026	151.01904	215.74680	-796.04810	171.69009	184.55492	-770.37927	221.55339	205.97430	-594.60553	221.69624	173.17551	-882.59125	296.02902	144.59126	-560.10199	260.18152	165.89249	-666.69366	298.39136	160.93405	-628.95355	305.37158	162.92288	-528.03589	304.71042	146.77905	-699.64600	-75.94765	1538.61792	-785.07690	92.77398	1050.55798	-766.04297	-5.57153	208.29149	-794.93726	54.73353	175.08922	-755.53693	-36.76171	488.84177	-559.49994	-38.38262	164.84096	-876.03320	-78.59757	141.50241	-587.72864	-11.67142	1052.03967	-697.60150	-31.01485	611.93054	-707.51276	-27.51919	567.07983	-675.38342	172.23376	155.91081	-621.81732	-77.07866	159.60278				-577.99072	216.11470	1072.43457	-629.24011	275.09006	878.07239	-672.35126	259.57993	709.43225	-660.91034	19.03918	519.26874	-684.14081	78.32630	574.99640	-679.37140	140.88739	572.24176	-670.67401	-57.56757	732.68829	
2	0.020	-690.95605	111.07887	1847.80994	-717.37799	289.28250	1531.29810	-644.14014	-74.17786	864.07288	-577.02881	-2.91440	802.81720	-570.49951	210.78555	814.97253	-715.12994	245.37091	639.23206	-720.36908	242.98465	576.30249	-666.74841	203.43085	531.47046	-762.66290	251.45897	504.17136	-662.88062	-66.19466	163.75082	-517.21521	-71.75973	143.14635	-716.69104	78.69684	216.18988	-603.69885	20.84268	165.50607	-675.10400	56.45679	156.33311	-710.64319	150.92363	215.62543	-795.92310	171.75455	184.38834	-770.33075	221.59378	206.05756	-594.49683	221.68437	173.12032	-882.50659	296.28424	144.83293	-560.15765	260.43509	166.23009	-666.58734	298.55685	160.86263	-629.36859	305.39349	162.71825	-528.03979	304.43768	146.58080	-699.49609	-75.94108	1538.57373	-784.94989	92.76560	1050.42041	-765.80017	-5.46227	208.45177	-795.24261	54.72009	175.53308	-755.60425	-36.69085	488.85196	-559.56537	-38.31333	164.93250	-875.99139	-78.70409	141.37393	-587.53412	-11.94885	1052.14490	-697.49438	-30.96190	612.03827	-707.38910	-27.69445	567.28290	-675.45862	172.20784	155.79387	-621.93604	-77.04238	159.53293				-576.65991	216.42432	1072.71960	-629.24011	275.09006	878.07239	-672.39282	259.53577	709.04547	-660.69745	18.95917	519.29321	-683.84534	78.08297	575.04938	-679.37140	140.88739	572.24176	-670.55365	-57.58701	732.76074	
3	0.040	-690.70721	111.13837	1847.81897	-717.12378	289.42450	1531.45093	-644.14014	-74.17786	864.07288	-576.96698	-3.09544	802.81592	-570.49951	210.78555	814.97253	-715.06732	245.46793	639.21887	-720.21619	242.79796	576.21790	-666.74841	203.43085	531.47046	-762.47803	251.45206	504.12451	-663.08832	-66.39674	163.85027	-517.34052	-71.78854	142.94933	-716.83002	78.78416	216.15576	-603.69922	20.80849	165.21925	-675.20123	56.45761	156.15408	-710.80267	150.89693	215.53275	-795.96674	171.68599	184.56224	-770.46021	221.44621	205.77426	-594.51501	221.72072	173.23067	-882.48456	296.10822	144.64120	-560.07092	260.50616	166.04208	-666.75366	298.60172	160.89906	-629.09375	305.34204	162.65910	-528.05426	304.57660	146.69742	-699.43225	-76.00172	1538.62231	-784.73602	92.80241	1050.39441	-765.79572	-5.38535	208.38503	-795.07886	54.78517	175.27777	-755.49524	-36.64227	488.88171	-559.58588	-38.29264	164.87881	-876.02838	-78.54763	141.55200	-587.90387	-11.50003	1051.68005	-697.54010	-30.83497	611.97949	-707.55548	-27.43513	567.01398	-675.45862	172.20784	155.79387	-621.87756	-77.03754	159.57205				-577.53027	216.19962	1072.81628	-629.24011	275.09006	878.07239	-672.41443	259.54529	709.55939	-660.82953	19.11374	519.22858	-683.84534	78.08297	575.04938	-679.24506	141.00998	571.99811	-670.55365	-57.58701	732.76074	
4	0.060	-690.56213	111.13174	1847.89612	-716.72449	289.36758	1531.58826	-644.06641	-74.08037	863.72058	-576.94440	-3.03740	802.55725	-570.35938	210.66985	814.94934	-714.84161	245.50232	639.14502	-720.21320	242.86923	576.40155	-666.74841	203.43085	531.47046	-762.31848	251.32864	504.26086	-663.00073	-66.31454	163.70320	-517.20074	-72.08028	143.26901	-716.54803	78.59269	216.29951	-603.65527	20.84916	165.30811	-675.10187	56.70831	156.40489	-710.61108	150.87679	215.61403	-795.91968	171.76645	184.62833	-770.40997	221.64018	206.05576	-594.64111	221.56830	173.07066	-882.61615	296.30814	144.90091	-559.97156	260.47821	166.12819	-666.58734	298.55685	160.86263	-629.09509	305.30618	162.74693	-528.17224	304.85693	146.67305	-698.97955	-76.05451	1538.73987	-784.62933	92.75616	1050.37036	-765.90356	-5.61700	208.44173	-794.98499	54.81672	175.42145	-755.38428	-36.59451	488.69421	-559.62939	-38.44855	164.96991	-876.02838	-78.54763	141.55200	-587.65924	-11.61457	1051.84753	-697.46460	-30.66269	611.84698	-707.26813	-27.51006	567.14117	-675.31934	172.11797	155.93405	-621.95544	-77.05766	159.45506				-577.66736	216.02695	1072.47827	-629.08594	275.01727	878.20569	-672.44720	259.13983	708.41901	-660.69745	18.95917	519.29321	-684.14081	78.32630	574.99640	-679.37140	140.88739	572.24176	-670.30780	-57.65427	732.59113	
5	0.080	-690.11914	111.17449	1847.70618	-716.54883	289.38556	1531.49243	-644.01984	-73.96887	863.50220	-576.80310	-3.13282	802.61090	-570.19476	210.85457	815.12128	-714.90387	245.43382	639.03809	-720.08917	242.72878	576.12939	-666.81079	203.55786	531.40485	-762.14813	251.24112	504.12933	-662.94427	-66.47297	163.73045	-517.26636	-71.84576	142.94781	-716.54803	78.59269	216.29951	-603.56030	20.88701	165.33838	-675.17963	56.34201	156.29137	-710.73584	150.92828	215.70113	-795.87854	171.79767	184.58679	-770.42004	221.69098	206.07816	-594.35706	221.66174	173.04482	-882.63751	296.29767	144.76250	-560.05365	260.41937	165.98180	-666.55884	298.52997	160.81696	-629.20422	305.18860	162.62770	-528.05817	304.30383	146.49913	-698.92548	-76.11566	1538.75122	-784.41833	92.82015	1050.22742	-765.75842	-5.52208	208.41638	-795.20752	54.86823	175.24881	-755.30005	-36.65596	488.71573	-559.57043	-38.45459	164.75778	-876.13446	-78.66106	141.72231	-587.25885	-11.71817	1052.05774	-697.24689	-30.73901	611.81519	-707.05267	-27.45087	567.13464	-675.23920	172.13496	156.05272	-621.87756	-77.03754	159.57205				-577.63818	215.96619	1072.58594	-629.01239	274.94592	878.10614	-671.93323	259.43390	708.61853	-660.69745	18.95917	519.29321	-683.84534	78.08297	575.04938	-679.24506	141.00998	571.99811	-670.30780	-57.65427	732.59113	
6	0.100	-689.98688	111.18777	1847.68103	-716.25616	289.28201	1531.50745	-643.94812	-74.07918	863.34851	-576.59668	-3.21831	802.62903	-570.26666	210.48714	815.27448	-714.90387	245.43382	639.03809	-720.17670	242.69615	576.12042	-666.69403	203.44817	531.41156	-762.21613	251.26299	504.08957	-662.83264	-66.35142	163.75935	-517.42450	-71.85735	142.88855	-716.16998	78.63568	216.24417	-603.65247	20.78088	165.12418	-675.20123	56.45761	156.15408	-710.93579	151.02655	215.79897	-795.94714	171.70445	184.64322	-770.55286	221.57314	205.98691	-594.53839	221.64597	173.08813	-882.53522	296.16849	144.69659	-560.13629	260.50314	166.12317	-666.58734	298.55685	160.86263	-629.04620	305.26364	162.72986	-527.97876	304.56192	146.74753	-698.88477	-76.07747	1538.76440	-784.30054	92.81609	1050.28845	-765.86481	-5.44411	208.41441	-795.28790	54.69534	175.45401	-755.30005	-36.65596	488.71573	-559.56921	-38.38702	164.77194	-876.05139	-78.44123	141.62697	-587.24371	-11.74249	1051.91248	-697.15906	-30.69275	611.86871	-707.00684	-27.27785	567.08093	-675.20862	171.84807	156.45059	-621.98157	-77.06348	159.42836				-577.21326	216.41637	1072.87158	-628.91046	274.98746	878.04230	-671.17493	260.21967	709.73914	-660.55475	18.99096	519.30817	-683.84534	78.08297	575.04938	-679.24506	141.00998	571.99811	-670.30780	-57.65427	732.59113	
